<svg width="512" height="512" viewBox="0 0 512 512" fill="none" xmlns="http://www.w3.org/2000/svg">
<rect width="512" height="512" fill="black"/>
<path d="M188.566 461H99.5039L100.09 415.004H188.566C219.035 415.004 244.426 408.656 264.738 395.961C285.051 383.07 300.285 365.102 310.441 342.055C320.793 318.812 325.969 291.664 325.969 260.609V234.535C325.969 210.121 323.039 188.441 317.18 169.496C311.32 150.355 302.727 134.242 291.398 121.156C280.07 107.875 266.203 97.8164 249.797 90.9805C233.586 84.1445 214.934 80.7266 193.84 80.7266H97.7461V34.4375H193.84C221.77 34.4375 247.258 39.125 270.305 48.5C293.352 57.6797 313.176 71.0586 329.777 88.6367C346.574 106.02 359.465 127.113 368.449 151.918C377.434 176.527 381.926 204.262 381.926 235.121V260.609C381.926 291.469 377.434 319.301 368.449 344.105C359.465 368.715 346.477 389.711 329.484 407.094C312.688 424.477 292.375 437.855 268.547 447.23C244.914 456.41 218.254 461 188.566 461ZM129.68 34.4375V461H73.1367V34.4375H129.68Z" fill="url(#paint0_linear_16_251)"/>
<path d="M376.073 472.65C368.967 472.65 362.727 471.177 357.353 468.23C351.98 465.197 347.777 461.08 344.743 455.88C341.71 450.593 340.193 444.57 340.193 437.81C340.193 431.05 341.623 425.07 344.483 419.87C347.43 414.67 351.417 410.597 356.443 407.65C361.557 404.617 367.277 403.1 373.603 403.1C380.017 403.1 385.693 404.573 390.633 407.52C395.66 410.38 399.603 414.453 402.463 419.74C405.323 424.94 406.753 430.963 406.753 437.81C406.753 438.243 406.71 438.72 406.623 439.24C406.623 439.673 406.623 440.15 406.623 440.67H347.213V433.78H401.683L398.043 436.51C398.043 431.57 396.96 427.193 394.793 423.38C392.713 419.48 389.853 416.447 386.213 414.28C382.573 412.113 378.37 411.03 373.603 411.03C368.923 411.03 364.72 412.113 360.993 414.28C357.267 416.447 354.363 419.48 352.283 423.38C350.203 427.28 349.163 431.743 349.163 436.77V438.2C349.163 443.4 350.29 447.993 352.543 451.98C354.883 455.88 358.09 458.957 362.163 461.21C366.323 463.377 371.047 464.46 376.333 464.46C380.493 464.46 384.35 463.723 387.903 462.25C391.543 460.777 394.663 458.523 397.263 455.49L402.463 461.47C399.43 465.11 395.617 467.883 391.023 469.79C386.517 471.697 381.533 472.65 376.073 472.65ZM449.748 472L419.458 403.75H429.078L456.898 467.06H452.348L480.558 403.75H489.658L459.238 472H449.748Z" fill="white"/>
<path d="M486.405 98.8193V143.062C484.911 145.276 482.532 147.766 479.267 150.533C476.002 153.245 471.492 155.624 465.736 157.672C460.036 159.664 452.676 160.66 443.656 160.66C436.296 160.66 429.517 159.387 423.319 156.842C417.177 154.241 411.837 150.478 407.299 145.553C402.816 140.572 399.33 134.54 396.84 127.457C394.405 120.318 393.188 112.239 393.188 103.219V93.8389C393.188 84.8187 394.239 76.7669 396.342 69.6836C398.5 62.6003 401.654 56.596 405.805 51.6709C409.955 46.6904 415.046 42.9274 421.078 40.3818C427.11 37.7809 434.027 36.4805 441.83 36.4805C451.072 36.4805 458.791 38.0853 464.989 41.2949C471.243 44.4492 476.112 48.821 479.599 54.4102C483.14 59.9993 485.409 66.3633 486.405 73.502H470.385C469.665 69.1302 468.227 65.1458 466.068 61.5488C463.965 57.9518 460.95 55.0742 457.021 52.916C453.091 50.7025 448.028 49.5957 441.83 49.5957C436.241 49.5957 431.399 50.6195 427.304 52.667C423.209 54.7145 419.833 57.6475 417.177 61.4658C414.521 65.2842 412.528 69.9049 411.2 75.3281C409.927 80.7513 409.291 86.8662 409.291 93.6729V103.219C409.291 110.191 410.093 116.417 411.698 121.896C413.358 127.374 415.71 132.05 418.754 135.924C421.798 139.742 425.422 142.647 429.628 144.64C433.889 146.632 438.593 147.628 443.739 147.628C449.439 147.628 454.06 147.158 457.602 146.217C461.143 145.221 463.91 144.059 465.902 142.73C467.895 141.347 469.416 140.047 470.468 138.829V111.769H442.494V98.8193H486.405Z" fill="url(#paint1_linear_16_251)"/>
<defs>
<linearGradient id="paint0_linear_16_251" x1="752.775" y1="118.5" x2="-314.344" y2="218.611" gradientUnits="userSpaceOnUse">
<stop offset="0.425448" stop-color="#C10E26"/>
<stop offset="0.5842" stop-color="#710305"/>
<stop offset="0.74" stop-color="#2E0BAE"/>
</linearGradient>
<linearGradient id="paint1_linear_16_251" x1="508" y1="197.5" x2="571.462" y2="32.6361" gradientUnits="userSpaceOnUse">
<stop offset="0.172127" stop-color="#FF7285"/>
<stop offset="0.545542" stop-color="#AE0B0E"/>
<stop offset="0.9" stop-color="#2E0BAE"/>
</linearGradient>
</defs>
</svg>
